<svg width="24" height="24" viewBox="0 0 24 24" fill="none" xmlns="http://www.w3.org/2000/svg">
<path d="M12 2.25C10.3167 2.24963 8.66196 2.68508 7.19687 3.51396C5.73178 4.34285 4.50624 5.53692 3.63954 6.97997C2.77285 8.42301 2.29452 10.0659 2.25112 11.7486C2.20772 13.4314 2.60073 15.0967 3.39188 16.5825L2.32782 19.7747C2.23968 20.039 2.22689 20.3226 2.29088 20.5938C2.35487 20.8649 2.49312 21.1129 2.69012 21.3099C2.88712 21.5069 3.1351 21.6451 3.40625 21.7091C3.67741 21.7731 3.96103 21.7603 4.22532 21.6722L7.41751 20.6081C8.7251 21.3036 10.174 21.6921 11.6541 21.744C13.1342 21.7959 14.6068 21.51 15.9599 20.9079C17.313 20.3057 18.5112 19.4033 19.4635 18.269C20.4157 17.1346 21.0971 15.7983 21.4557 14.3613C21.8144 12.9244 21.8411 11.4246 21.5336 9.97578C21.2261 8.527 20.5926 7.16731 19.6812 5.99992C18.7697 4.83253 17.6043 3.88811 16.2734 3.23836C14.9425 2.58861 13.4811 2.25061 12 2.25ZM12 20.25C10.5497 20.251 9.12479 19.8691 7.86938 19.1428C7.77747 19.0895 7.67527 19.0563 7.56957 19.0455C7.46387 19.0347 7.35707 19.0464 7.25626 19.08L3.75001 20.25L4.91907 16.7438C4.95277 16.643 4.96468 16.5362 4.95401 16.4305C4.94335 16.3248 4.91034 16.2226 4.85719 16.1306C3.94779 14.5584 3.58267 12.7299 3.81847 10.929C4.05427 9.12801 4.87781 7.4552 6.16134 6.17006C7.44487 4.88491 9.11663 4.05925 10.9173 3.82118C12.7179 3.5831 14.5468 3.94591 16.1203 4.85333C17.6937 5.76074 18.9237 7.16204 19.6194 8.83983C20.3151 10.5176 20.4378 12.3781 19.9682 14.1327C19.4987 15.8873 18.4632 17.4379 17.0225 18.5439C15.5818 19.65 13.8163 20.2497 12 20.25Z" fill="#545F71"/>
</svg>
